<svg id="visual" viewBox="0 0 900 600" width="900" height="600" xmlns="http://www.w3.org/2000/svg" xmlns:xlink="http://www.w3.org/1999/xlink" version="1.1"><path d="M0 95L18.8 96.2C37.7 97.3 75.3 99.7 112.8 98.3C150.3 97 187.7 92 225.2 88.2C262.7 84.3 300.3 81.7 337.8 82.2C375.3 82.7 412.7 86.3 450.2 88C487.7 89.7 525.3 89.3 562.8 90C600.3 90.7 637.7 92.3 675.2 89.8C712.7 87.3 750.3 80.7 787.8 81.2C825.3 81.7 862.7 89.3 881.3 93.2L900 97L900 0L881.3 0C862.7 0 825.3 0 787.8 0C750.3 0 712.7 0 675.2 0C637.7 0 600.3 0 562.8 0C525.3 0 487.7 0 450.2 0C412.7 0 375.3 0 337.8 0C300.3 0 262.7 0 225.2 0C187.7 0 150.3 0 112.8 0C75.3 0 37.7 0 18.8 0L0 0Z" fill="#50727b"></path><path d="M0 63L18.8 63.3C37.7 63.7 75.3 64.3 112.8 65C150.3 65.7 187.7 66.3 225.2 67.3C262.7 68.3 300.3 69.7 337.8 69.5C375.3 69.3 412.7 67.7 450.2 66.7C487.7 65.7 525.3 65.3 562.8 63.7C600.3 62 637.7 59 675.2 58.7C712.7 58.3 750.3 60.7 787.8 62.8C825.3 65 862.7 67 881.3 68L900 69L900 0L881.3 0C862.7 0 825.3 0 787.8 0C750.3 0 712.7 0 675.2 0C637.7 0 600.3 0 562.8 0C525.3 0 487.7 0 450.2 0C412.7 0 375.3 0 337.8 0C300.3 0 262.7 0 225.2 0C187.7 0 150.3 0 112.8 0C75.3 0 37.7 0 18.8 0L0 0Z" fill="#46646e"></path><path d="M0 46L18.8 46.5C37.7 47 75.3 48 112.8 49.7C150.3 51.3 187.7 53.7 225.2 51.3C262.7 49 300.3 42 337.8 42C375.3 42 412.7 49 450.2 52.7C487.7 56.3 525.3 56.7 562.8 55.5C600.3 54.3 637.7 51.7 675.2 48.3C712.7 45 750.3 41 787.8 38.8C825.3 36.7 862.7 36.3 881.3 36.2L900 36L900 0L881.3 0C862.7 0 825.3 0 787.8 0C750.3 0 712.7 0 675.2 0C637.7 0 600.3 0 562.8 0C525.3 0 487.7 0 450.2 0C412.7 0 375.3 0 337.8 0C300.3 0 262.7 0 225.2 0C187.7 0 150.3 0 112.8 0C75.3 0 37.7 0 18.8 0L0 0Z" fill="#3d5662"></path><path d="M0 15L18.8 16.8C37.7 18.7 75.3 22.3 112.8 22.2C150.3 22 187.7 18 225.2 16.2C262.7 14.3 300.3 14.7 337.8 14.5C375.3 14.3 412.7 13.7 450.2 13C487.7 12.3 525.3 11.7 562.8 13.7C600.3 15.7 637.7 20.3 675.2 23.2C712.7 26 750.3 27 787.8 25.5C825.3 24 862.7 20 881.3 18L900 16L900 0L881.3 0C862.7 0 825.3 0 787.8 0C750.3 0 712.7 0 675.2 0C637.7 0 600.3 0 562.8 0C525.3 0 487.7 0 450.2 0C412.7 0 375.3 0 337.8 0C300.3 0 262.7 0 225.2 0C187.7 0 150.3 0 112.8 0C75.3 0 37.7 0 18.8 0L0 0Z" fill="#344955"></path></svg>