<svg id="visual" viewBox="0 0 900 675" width="900" height="675" xmlns="http://www.w3.org/2000/svg" xmlns:xlink="http://www.w3.org/1999/xlink" version="1.1"><path d="M0 53L16.7 52C33.3 51 66.7 49 100 49.2C133.3 49.3 166.7 51.7 200 52C233.3 52.3 266.7 50.7 300 47.5C333.3 44.3 366.7 39.7 400 39C433.3 38.3 466.7 41.7 500 43C533.3 44.3 566.7 43.7 600 45.3C633.3 47 666.7 51 700 52.2C733.3 53.3 766.7 51.7 800 50.7C833.3 49.7 866.7 49.3 883.3 49.2L900 49L900 0L883.3 0C866.7 0 833.3 0 800 0C766.7 0 733.3 0 700 0C666.7 0 633.3 0 600 0C566.7 0 533.3 0 500 0C466.7 0 433.3 0 400 0C366.7 0 333.3 0 300 0C266.7 0 233.3 0 200 0C166.7 0 133.3 0 100 0C66.7 0 33.3 0 16.7 0L0 0Z" fill="#344955"></path><path d="M0 26L16.7 27.3C33.3 28.7 66.7 31.3 100 32.2C133.3 33 166.7 32 200 31.2C233.3 30.3 266.7 29.7 300 30.2C333.3 30.7 366.7 32.3 400 32.5C433.3 32.7 466.7 31.3 500 33.2C533.3 35 566.7 40 600 40.8C633.3 41.7 666.7 38.3 700 36.7C733.3 35 766.7 35 800 34.5C833.3 34 866.7 33 883.3 32.5L900 32L900 0L883.3 0C866.7 0 833.3 0 800 0C766.7 0 733.3 0 700 0C666.7 0 633.3 0 600 0C566.7 0 533.3 0 500 0C466.7 0 433.3 0 400 0C366.7 0 333.3 0 300 0C266.7 0 233.3 0 200 0C166.7 0 133.3 0 100 0C66.7 0 33.3 0 16.7 0L0 0Z" fill="#3a535f"></path><path d="M0 19L16.7 20.2C33.3 21.3 66.7 23.7 100 25.7C133.3 27.7 166.7 29.3 200 28.3C233.3 27.3 266.7 23.7 300 23.7C333.3 23.7 366.7 27.3 400 27.3C433.3 27.3 466.7 23.7 500 23.3C533.3 23 566.7 26 600 27.2C633.3 28.3 666.7 27.7 700 28.7C733.3 29.7 766.7 32.3 800 32.7C833.3 33 866.7 31 883.3 30L900 29L900 0L883.3 0C866.7 0 833.3 0 800 0C766.7 0 733.3 0 700 0C666.7 0 633.3 0 600 0C566.7 0 533.3 0 500 0C466.7 0 433.3 0 400 0C366.7 0 333.3 0 300 0C266.7 0 233.3 0 200 0C166.7 0 133.3 0 100 0C66.7 0 33.3 0 16.7 0L0 0Z" fill="#415d68"></path><path d="M0 13L16.7 13C33.3 13 66.7 13 100 13.5C133.3 14 166.7 15 200 14.8C233.3 14.7 266.7 13.3 300 14.5C333.3 15.7 366.7 19.3 400 19.5C433.3 19.7 466.7 16.3 500 15.8C533.3 15.3 566.7 17.7 600 18C633.3 18.3 666.7 16.7 700 15.3C733.3 14 766.7 13 800 12.7C833.3 12.3 866.7 12.7 883.3 12.8L900 13L900 0L883.3 0C866.7 0 833.3 0 800 0C766.7 0 733.3 0 700 0C666.7 0 633.3 0 600 0C566.7 0 533.3 0 500 0C466.7 0 433.3 0 400 0C366.7 0 333.3 0 300 0C266.7 0 233.3 0 200 0C166.7 0 133.3 0 100 0C66.7 0 33.3 0 16.7 0L0 0Z" fill="#486772"></path><path d="M0 13L16.7 11.7C33.3 10.3 66.7 7.7 100 7.7C133.3 7.7 166.7 10.3 200 10.8C233.3 11.3 266.7 9.7 300 9C333.3 8.3 366.7 8.7 400 8.8C433.3 9 466.7 9 500 9.3C533.3 9.7 566.7 10.3 600 10.7C633.3 11 666.7 11 700 10C733.3 9 766.7 7 800 7.5C833.3 8 866.7 11 883.3 12.5L900 14L900 0L883.3 0C866.7 0 833.3 0 800 0C766.7 0 733.3 0 700 0C666.7 0 633.3 0 600 0C566.7 0 533.3 0 500 0C466.7 0 433.3 0 400 0C366.7 0 333.3 0 300 0C266.7 0 233.3 0 200 0C166.7 0 133.3 0 100 0C66.7 0 33.3 0 16.7 0L0 0Z" fill="#50727b"></path></svg>