<svg id="visual" viewBox="0 0 900 675" width="900" height="675" xmlns="http://www.w3.org/2000/svg" xmlns:xlink="http://www.w3.org/1999/xlink" version="1.1"><rect x="0" y="0" width="900" height="675" fill="#344955"></rect><path d="M0 171L21.5 175.3C43 179.7 86 188.3 128.8 192.3C171.7 196.3 214.3 195.7 257.2 194.5C300 193.3 343 191.7 385.8 203.2C428.7 214.7 471.3 239.3 514.2 250.3C557 261.3 600 258.7 642.8 255.7C685.7 252.7 728.3 249.3 771.2 247C814 244.7 857 243.3 878.5 242.7L900 242L900 0L878.5 0C857 0 814 0 771.2 0C728.3 0 685.7 0 642.8 0C600 0 557 0 514.2 0C471.3 0 428.7 0 385.8 0C343 0 300 0 257.2 0C214.3 0 171.7 0 128.8 0C86 0 43 0 21.5 0L0 0Z" fill="#35374b"></path><path d="M0 169L21.5 166.8C43 164.7 86 160.3 128.8 165.3C171.7 170.3 214.3 184.7 257.2 186C300 187.3 343 175.7 385.8 172C428.7 168.3 471.3 172.7 514.2 181.7C557 190.7 600 204.3 642.8 206C685.7 207.7 728.3 197.3 771.2 186.8C814 176.3 857 165.7 878.5 160.3L900 155L900 0L878.5 0C857 0 814 0 771.2 0C728.3 0 685.7 0 642.8 0C600 0 557 0 514.2 0C471.3 0 428.7 0 385.8 0C343 0 300 0 257.2 0C214.3 0 171.7 0 128.8 0C86 0 43 0 21.5 0L0 0Z" fill="#365166"></path><path d="M0 175L21.5 162.8C43 150.7 86 126.3 128.8 114.8C171.7 103.3 214.3 104.7 257.2 117.5C300 130.3 343 154.7 385.8 155.8C428.7 157 471.3 135 514.2 127.5C557 120 600 127 642.8 134.5C685.7 142 728.3 150 771.2 149.5C814 149 857 140 878.5 135.5L900 131L900 0L878.5 0C857 0 814 0 771.2 0C728.3 0 685.7 0 642.8 0C600 0 557 0 514.2 0C471.3 0 428.7 0 385.8 0C343 0 300 0 257.2 0C214.3 0 171.7 0 128.8 0C86 0 43 0 21.5 0L0 0Z" fill="#3a6d78"></path><path d="M0 90L21.5 92.8C43 95.7 86 101.3 128.8 97.7C171.7 94 214.3 81 257.2 77.7C300 74.3 343 80.7 385.8 80C428.7 79.3 471.3 71.7 514.2 70.7C557 69.7 600 75.3 642.8 77.5C685.7 79.7 728.3 78.3 771.2 81.2C814 84 857 91 878.5 94.5L900 98L900 0L878.5 0C857 0 814 0 771.2 0C728.3 0 685.7 0 642.8 0C600 0 557 0 514.2 0C471.3 0 428.7 0 385.8 0C343 0 300 0 257.2 0C214.3 0 171.7 0 128.8 0C86 0 43 0 21.5 0L0 0Z" fill="#508880"></path><path d="M0 40L21.5 45C43 50 86 60 128.8 63.8C171.7 67.7 214.3 65.3 257.2 63C300 60.7 343 58.3 385.8 59C428.7 59.7 471.3 63.3 514.2 66C557 68.7 600 70.3 642.8 70.3C685.7 70.3 728.3 68.7 771.2 66.3C814 64 857 61 878.5 59.5L900 58L900 0L878.5 0C857 0 814 0 771.2 0C728.3 0 685.7 0 642.8 0C600 0 557 0 514.2 0C471.3 0 428.7 0 385.8 0C343 0 300 0 257.2 0C214.3 0 171.7 0 128.8 0C86 0 43 0 21.5 0L0 0Z" fill="#78a083"></path></svg>