<svg width="434" height="375" viewBox="0 0 434 375" fill="none" xmlns="http://www.w3.org/2000/svg">
<path d="M216.506 0L433.013 375H0L216.506 0Z" fill="#5D6369"/>
<path d="M121.506 374H156.856V375H121.506V374Z" fill="white"/>
<path d="M157.523 127L100.506 225.301L129.92 242.204L186.938 143.903L157.523 127ZM187.037 163.367L147.158 232.096L261.257 297.674L301.119 228.945L187.037 163.367ZM231.051 163.727L225.135 173.935L269.941 199.683L275.874 189.459L231.051 163.727ZM318.092 219.295L261.092 317.596L290.506 334.5L347.506 236.197L318.092 219.294L318.092 219.295ZM175.436 259.682L169.487 269.939L214.292 295.671L220.224 285.43L175.436 259.682ZM173.804 283.757L121.434 374H156.847L200.235 298.92L173.803 283.756L173.804 283.757Z" fill="white"/>
<path d="M240.006 201.421C228.674 194.879 212.348 195.14 199.932 197.882C189.892 200.099 182.073 203.308 179.339 204.5C179.674 207.464 180.804 215.84 183.904 225.643C187.738 237.766 195.674 252.036 207.006 258.579C218.339 265.121 234.665 264.86 247.08 262.118C257.121 259.901 264.939 256.692 267.674 255.5C267.339 252.536 266.208 244.16 263.108 234.357C259.275 222.234 251.339 207.964 240.006 201.421ZM237.493 205.774C241.679 208.2 245.156 211.683 247.58 215.88C245.475 215.518 243.307 215.813 241.368 216.726C239.429 217.638 237.812 219.125 236.737 220.983C236.722 221.013 236.707 221.042 236.692 221.072C235.72 219.612 234.51 218.327 233.113 217.27L235.689 212.808L232.304 210.853L229.727 215.315C223.067 212.503 215.248 214.624 210.868 220.432L206.434 217.872L204.467 221.279L208.901 223.839C206.061 230.536 208.134 238.368 213.9 242.73L211.324 247.192L214.709 249.147L217.285 244.685C223.946 247.497 231.765 245.376 236.145 239.568L240.579 242.128L242.546 238.721L238.112 236.161C238.401 235.475 238.643 234.77 238.834 234.051C239.353 234.517 239.918 234.929 240.52 235.281C242.074 236.175 243.834 236.65 245.63 236.662C247.425 236.673 249.196 236.22 250.771 235.345C250.181 238.35 249.103 241.24 247.581 243.9C243.872 250.325 237.778 255.022 230.64 256.959C223.502 258.895 215.905 257.912 209.52 254.226C203.135 250.539 198.485 244.452 196.593 237.302C194.701 230.152 195.722 222.525 199.431 216.1C203.141 209.675 209.235 204.978 216.373 203.041C223.511 201.105 231.108 202.088 237.493 205.774ZM227.743 218.753L225.31 222.966L228.696 224.921L231.128 220.707C235.085 223.949 236.522 229.379 234.696 234.189L230.509 231.772L228.542 235.178L232.729 237.596C229.476 241.582 224.055 243.053 219.27 241.247L221.702 237.034L218.317 235.079L215.884 239.292C211.928 236.051 210.491 230.621 212.317 225.811L216.504 228.228L218.471 224.822L214.284 222.404C217.536 218.418 222.958 216.947 227.743 218.753Z" fill="#5D6369"/>
</svg>
